<?xml version="1.0" encoding="UTF-8"?>
<svg width="68px" height="20px" viewBox="0 0 68 20" version="1.1" xmlns="http://www.w3.org/2000/svg" xmlns:xlink="http://www.w3.org/1999/xlink">
    <!-- Generator: Sketch 39.1 (31720) - http://www.bohemiancoding.com/sketch -->
    <title>FRED_Logo</title>
    <desc>Created with Sketch.</desc>
    <defs>
        <rect id="path-1" x="0.0849438202" y="0" width="67.3307865" height="19.9095506"></rect>
    </defs>
    <g id="Symbols" stroke="none" stroke-width="1" fill="none" fill-rule="evenodd">
        <g id="Header-Mobile" transform="translate(-24.000000, -54.000000)">
            <g id="FRED_Logo" transform="translate(24.000000, 54.000000)">
                <g id="Clipped">
                    <mask id="mask-2" fill="white">
                        <use xlink:href="#path-1"></use>
                    </mask>
                    <g id="SVGID_1_"></g>
                    <path d="M50.5540449,19.9095506 L57.5897753,19.9095506 C63.6221348,19.9095506 67.4157303,16.0175281 67.4157303,9.95550562 C67.4157303,3.89213483 63.6220225,0 57.5897753,0 L50.5540449,0 L50.5540449,19.9095506 L50.5540449,19.9095506 Z M54.6713483,16.2453933 L54.6713483,3.63179775 L57.4278652,3.63179775 C61.222809,3.63179775 63.2969663,6.06337079 63.2969663,9.95550562 C63.2969663,13.8138202 61.222809,16.2453933 57.4278652,16.2453933 L54.6713483,16.2453933 L54.6713483,16.2453933 Z M33.8360674,0 L33.8360674,19.9095506 L47.3565169,19.9095506 L47.3565169,16.2455056 L37.921573,16.2455056 L37.921573,11.5117978 L46.4825843,11.5117978 L46.4825843,7.97707865 L37.921573,7.97707865 L37.921573,3.63179775 L47.3565169,3.63179775 L47.3565169,0 L33.8360674,0 L33.8360674,0 Z M19.9749438,3.5347191 L23.8002247,3.5347191 C25.8757303,3.5347191 26.9465169,4.63786517 26.9465169,6.32370787 C26.9465169,7.97707865 25.8757303,9.08022472 23.8002247,9.08022472 L19.9749438,9.08022472 L19.9749438,3.5347191 L19.9749438,3.5347191 Z M22.1475281,12.4841573 L27.0759551,19.9095506 L31.7449438,19.9095506 L26.4921348,12.192809 C29.2817978,11.5116854 31.031573,9.50101124 31.031573,6.32370787 C31.031573,2.23741573 28.2432584,0 24.0598876,0 L15.8569663,0 L15.8569663,19.9095506 L19.9749438,19.9095506 L19.9749438,12.4841573 L22.1475281,12.4841573 L22.1475281,12.4841573 Z M4.20292135,19.9095506 L4.20292135,12.2898876 L12.6653933,12.2898876 L12.6653933,8.69044944 L4.20292135,8.69044944 L4.20292135,3.63179775 L13.3465169,3.63179775 L13.3465169,0 L0.0849438202,0 L0.0849438202,19.9095506 L4.20292135,19.9095506 L4.20292135,19.9095506 Z" id="Shape" fill="#1C1C1C" mask="url(#mask-2)"></path>
                </g>
            </g>
        </g>
    </g>
</svg>