<svg width="68" height="20" viewBox="0 0 68 20" xmlns="http://www.w3.org/2000/svg" xmlns:xlink="http://www.w3.org/1999/xlink"><title>FRED_Logo</title><defs><path id="a" d="M.085 0h67.331v19.91H.085z"/></defs><g fill="none" fill-rule="evenodd"><mask id="b" fill="#fff"><use xlink:href="#a"/></mask><path d="M50.554 19.91h7.036c6.032 0 9.826-3.892 9.826-9.954C67.416 3.892 63.622 0 57.59 0h-7.036v19.91zm4.117-3.665V3.632h2.757c3.795 0 5.869 2.431 5.869 6.324 0 3.858-2.074 6.29-5.87 6.29h-2.756zM33.836 0v19.91h13.52v-3.664h-9.434v-4.734h8.56V7.977h-8.56V3.632h9.435V0h-13.52zM19.975 3.535H23.8c2.076 0 3.147 1.103 3.147 2.789 0 1.653-1.071 2.756-3.147 2.756h-3.825V3.535zm2.173 8.95l4.928 7.425h4.669l-5.253-7.717c2.79-.681 4.54-2.692 4.54-5.87C31.032 2.238 28.243 0 24.06 0h-8.203v19.91h4.118v-7.426h2.173zM4.203 19.91v-7.62h8.462v-3.6H4.203V3.632h9.144V0H.085v19.91h4.118z" fill="#1C1C1C" mask="url(#b)"/></g></svg>